<?xml version="1.0" standalone="no"?>
<!DOCTYPE svg PUBLIC "-//W3C//DTD SVG 20010904//EN"
 "http://www.w3.org/TR/2001/REC-SVG-20010904/DTD/svg10.dtd">
<svg version="1.0" xmlns="http://www.w3.org/2000/svg"
 width="1920.000000pt" height="1080.000000pt" viewBox="0 0 1920.000000 1080.000000"
 preserveAspectRatio="xMidYMid meet">

<g transform="translate(0.000000,1080.000000) scale(0.100000,-0.100000)"
fill="#000000" stroke="none">
<path d="M9440 7309 c-179 -18 -339 -64 -517 -149 -445 -212 -759 -604 -868
-1085 -37 -159 -46 -404 -21 -572 43 -290 163 -563 344 -783 64 -77 1214
-1230 1227 -1230 16 0 1171 1163 1238 1246 490 610 456 1512 -78 2072 -151
159 -290 262 -469 348 -277 133 -557 183 -856 153z m380 -149 c457 -70 863
-368 1075 -790 43 -86 106 -273 126 -375 22 -109 19 -437 -5 -545 -129 -595
-584 -1033 -1181 -1136 -116 -21 -423 -14 -535 11 -272 60 -506 189 -706 389
-123 124 -169 182 -243 312 -142 247 -208 554 -181 836 34 354 180 660 433
905 205 199 459 332 735 383 111 21 376 26 482 10z"/>
<path d="M9623 6712 c-26 -55 -27 -62 -12 -62 12 0 16 5 13 15 -8 19 25 33 36
14 5 -7 6 -17 4 -21 -3 -4 4 -8 14 -8 20 0 20 1 2 48 -9 26 -19 54 -22 62 -3
9 -17 -11 -35 -48z m27 3 c0 -8 -4 -15 -10 -15 -5 0 -7 7 -4 15 4 8 8 15 10
15 2 0 4 -7 4 -15z"/>
<path d="M9755 6710 c0 -34 -5 -54 -15 -60 -12 -8 -10 -10 8 -10 13 0 21 4 18
9 -3 5 -3 23 0 41 l7 32 31 -54 31 -53 8 45 c5 25 13 53 18 63 7 13 5 17 -9
17 -15 0 -17 -6 -14 -35 2 -19 2 -35 -1 -35 -3 0 -16 17 -28 38 -22 35 -37 52
-49 52 -3 0 -5 -23 -5 -50z"/>
<path d="M9370 6725 c-16 -20 -6 -43 25 -55 14 -5 25 -16 25 -25 0 -18 -21
-20 -38 -3 -9 9 -12 9 -12 1 0 -18 19 -26 46 -19 37 10 33 54 -6 67 -34 12
-43 45 -10 36 11 -3 20 -1 20 4 0 15 -36 10 -50 -6z"/>
<path d="M9922 6714 c10 -9 -23 -94 -35 -94 -17 0 15 -20 32 -20 8 0 12 3 9 6
-10 9 23 94 35 95 7 0 3 4 -8 9 -24 10 -41 12 -33 4z"/>
<path d="M9250 6695 c-19 -7 -30 -14 -24 -14 11 -1 41 -79 36 -95 -2 -5 5 -6
14 -2 9 3 27 9 40 12 13 3 24 13 24 22 0 13 -3 12 -20 -3 -15 -14 -23 -16 -32
-7 -13 13 -3 46 12 37 5 -3 10 1 10 11 0 13 -3 14 -15 4 -16 -13 -35 -6 -35
15 0 18 25 26 39 12 9 -9 11 -8 6 6 -8 20 -9 20 -55 2z"/>
<path d="M10020 6667 c0 -8 -11 -30 -24 -50 -23 -33 -24 -47 -4 -47 4 0 8 8 8
18 0 10 7 27 15 38 15 18 15 16 10 -23 -4 -24 -3 -43 1 -43 4 0 23 12 41 26
l35 26 -16 -31 c-9 -17 -22 -31 -29 -31 -6 0 -3 -7 7 -15 23 -17 40 -20 31 -5
-4 6 5 30 18 55 30 52 17 64 -30 29 l-32 -24 -3 42 c-2 23 -9 43 -15 46 -7 2
-13 -3 -13 -11z"/>
<path d="M9116 6629 c-32 -25 -34 -61 -5 -90 37 -37 106 -5 94 44 -6 23 -10
25 -28 16 -18 -10 -19 -12 -4 -21 26 -14 21 -38 -7 -38 -27 0 -56 33 -56 62 0
25 37 43 56 27 12 -10 13 -9 8 5 -8 22 -26 20 -58 -5z"/>
<path d="M10180 6535 c-19 -13 -42 -24 -49 -24 -12 -1 -12 -4 -3 -13 10 -10
15 -10 21 1 5 8 16 11 25 8 18 -7 22 -33 6 -39 -6 -2 -2 -8 8 -14 16 -11 20
-6 33 47 18 67 13 71 -41 34z m25 -14 c-3 -6 -11 -8 -17 -5 -6 4 -5 9 3 15 16
10 23 4 14 -10z"/>
<path d="M8990 6531 c0 -11 9 -21 21 -24 13 -4 18 -10 14 -17 -6 -9 -10 -9
-17 1 -5 9 -6 -1 -2 -26 8 -48 6 -46 24 -34 11 8 12 12 3 16 -30 11 -5 46 24
35 7 -2 10 -9 7 -14 -4 -6 4 -5 16 2 12 6 20 13 18 14 -1 1 -27 17 -55 34 -47
28 -53 30 -53 13z"/>
<path d="M10310 6490 c0 -19 -50 -70 -69 -70 -11 0 -5 -10 17 -32 25 -25 34
-30 44 -20 9 9 8 12 -4 12 -9 0 -20 5 -23 11 -8 11 30 57 56 68 14 5 14 8 -3
25 -12 14 -18 15 -18 6z"/>
<path d="M8884 6446 c-9 -36 3 -47 44 -44 28 2 37 -1 37 -12 0 -9 -9 -15 -22
-14 -18 0 -20 -2 -11 -13 9 -11 14 -11 30 4 10 9 18 26 16 37 -2 17 -11 21
-43 22 -28 0 -40 5 -40 15 0 8 8 13 17 13 10 -1 15 2 12 7 -10 18 -34 9 -40
-15z"/>
<path d="M9540 6461 c0 -5 5 -21 11 -35 10 -21 6 -32 -26 -85 -34 -55 -37 -64
-25 -85 16 -31 9 -57 -46 -178 -24 -54 -44 -101 -44 -105 0 -5 12 -23 28 -40
19 -22 39 -34 69 -38 42 -7 44 -5 110 59 37 36 80 68 95 71 15 4 30 11 33 16
4 5 11 9 16 9 18 0 137 -195 150 -245 17 -69 51 -144 82 -181 36 -42 35 -78
-3 -116 -16 -16 -30 -38 -30 -47 0 -29 39 -71 65 -71 29 0 35 -16 35 -95 0
-59 -2 -65 -35 -98 -22 -22 -35 -45 -35 -61 0 -21 7 -27 41 -37 40 -13 41 -12
76 26 l36 39 -5 91 -5 92 71 11 c39 7 82 13 96 14 36 4 36 33 0 69 -30 30 -34
31 -91 26 -57 -5 -60 -4 -57 16 2 12 23 35 48 52 43 29 49 30 154 30 68 0 111
4 113 11 2 5 -33 21 -77 34 -81 23 -81 23 -108 3 -15 -11 -71 -49 -124 -86
-64 -44 -93 -69 -85 -74 7 -4 54 -8 105 -8 81 0 95 -3 108 -20 23 -31 12 -40
-62 -47 -57 -6 -77 -4 -116 12 -26 11 -57 20 -71 20 -13 0 -34 11 -47 25 l-23
24 60 68 c75 85 84 108 46 116 -16 3 -47 22 -70 41 -34 30 -46 51 -68 115 -24
73 -108 235 -142 273 -14 15 -18 14 -61 -13 -25 -16 -52 -29 -58 -29 -7 0 -40
-27 -74 -60 -69 -67 -96 -75 -135 -35 -35 34 -31 63 18 158 24 45 49 97 55
116 9 27 16 32 32 28 12 -3 33 1 48 9 15 8 32 14 39 14 20 0 33 35 33 89 0 52
7 81 20 81 15 0 32 -61 26 -91 -5 -26 -3 -30 10 -25 9 3 33 6 54 6 48 0 105
43 80 60 -8 5 -25 10 -36 10 -23 0 -40 26 -22 32 6 2 -6 13 -28 23 -36 18 -90
22 -186 13 -13 -1 -33 1 -45 6 -14 4 -23 3 -23 -3z"/>
<path d="M9887 6406 c29 -20 58 -36 66 -36 18 0 67 -23 67 -32 0 -5 7 -8 16
-8 27 0 6 17 -73 57 -107 55 -140 63 -76 19z"/>
<path d="M10400 6392 c0 -6 -18 -23 -39 -39 -35 -26 -38 -30 -25 -48 11 -14
14 -15 14 -4 0 16 59 66 73 61 13 -4 8 15 -8 28 -9 7 -15 8 -15 2z"/>
<path d="M8810 6365 c-6 -8 -10 -22 -8 -32 3 -14 12 -17 38 -16 51 3 65 -3 50
-23 -7 -8 -19 -13 -27 -10 -8 3 -11 1 -8 -4 11 -18 35 -10 47 15 9 21 9 29 -5
42 -14 14 -21 15 -43 4 -17 -8 -31 -8 -37 -2 -13 13 2 34 20 27 8 -3 11 -1 8
4 -9 14 -21 12 -35 -5z"/>
<path d="M10083 6288 c8 -20 14 -38 13 -40 -2 -2 -6 -16 -10 -31 -4 -19 -3
-26 4 -22 5 3 10 17 10 31 0 13 5 24 10 24 12 0 12 -1 0 -74 -5 -33 -19 -72
-33 -90 -37 -49 -43 -63 -17 -41 l23 20 -7 -22 c-4 -12 -4 -33 0 -48 l7 -27
33 36 c18 20 38 36 43 36 17 0 17 143 1 186 -9 22 -40 57 -73 84 -18 14 -18
13 -4 -22z"/>
<path d="M10447 6299 c-11 -10 -32 -24 -47 -31 l-29 -14 21 -32 c21 -33 32
-39 43 -22 3 6 -1 10 -9 10 -24 0 -30 20 -12 38 15 16 17 15 23 -6 4 -18 8
-20 19 -11 12 10 12 14 -2 24 -16 11 -16 12 0 18 23 9 39 -1 32 -19 -3 -8 -1
-14 4 -14 16 0 12 30 -8 54 -16 21 -18 22 -35 5z"/>
<path d="M9820 6300 c-24 -8 -24 -8 7 -9 17 -1 35 4 38 9 7 11 -9 11 -45 0z"/>
<path d="M9847 6276 c-44 -25 -54 -35 -40 -38 29 -8 58 7 82 41 12 17 21 31
19 30 -2 0 -29 -15 -61 -33z"/>
<path d="M8730 6245 c0 -14 73 -94 81 -89 15 9 10 24 -6 18 -10 -4 -15 0 -15
16 0 11 -4 19 -9 15 -5 -3 -13 0 -16 6 -7 10 44 7 62 -4 5 -3 14 2 20 12 10
16 7 18 -25 19 -21 1 -49 4 -64 8 -16 3 -28 3 -28 -1z"/>
<path d="M10184 6232 c4 -7 25 -15 48 -18 40 -7 40 -7 20 -23 -21 -16 -21 -18
-7 -80 9 -35 20 -71 26 -80 16 -25 2 74 -16 108 l-14 29 67 -34 c65 -33 92
-41 92 -28 0 4 -13 30 -30 59 -29 52 -31 52 -87 58 -32 4 -69 10 -82 13 -17 5
-22 4 -17 -4z"/>
<path d="M10530 6194 c0 -13 -79 -46 -91 -38 -5 3 -4 -6 2 -20 10 -21 14 -23
23 -12 14 16 75 41 82 33 11 -11 -8 -29 -27 -24 -24 6 -52 -26 -47 -55 4 -23
4 -23 17 4 9 17 23 28 40 30 31 4 40 42 17 73 -9 11 -16 15 -16 9z"/>
<path d="M9960 6155 c-10 -12 -15 -13 -20 -4 -5 7 -23 -9 -48 -42 -41 -54 -48
-76 -13 -45 10 9 33 19 51 21 28 4 100 47 100 61 0 6 -37 -13 -73 -39 -42 -29
-46 -12 -7 28 19 19 31 35 28 35 -3 0 -11 -7 -18 -15z"/>
<path d="M8674 6135 c-4 -10 3 -26 20 -44 30 -32 26 -41 -21 -41 -23 0 -33 -5
-33 -15 0 -13 10 -14 58 -9 31 4 59 9 62 11 3 3 -11 18 -30 35 l-35 29 30 -7
c17 -4 35 -11 41 -16 8 -5 13 -2 17 11 4 15 -2 20 -34 25 -20 3 -45 13 -53 22
-15 14 -17 14 -22 -1z"/>
<path d="M10221 6085 c0 -18 28 -61 29 -44 0 8 -7 24 -15 35 -8 10 -14 15 -14
9z"/>
<path d="M10544 6025 c-8 -34 -32 -52 -40 -31 -3 9 -1 23 6 31 8 10 9 15 2 15
-17 0 -24 -19 -18 -46 5 -20 12 -25 34 -22 19 2 28 10 30 25 5 32 30 50 38 28
4 -10 1 -21 -7 -26 -11 -7 -11 -9 4 -9 17 0 22 16 11 44 -10 26 -53 20 -60 -9z"/>
<path d="M10166 6015 c-9 -26 -7 -32 5 -12 6 10 9 21 6 23 -2 3 -7 -2 -11 -11z"/>
<path d="M8703 6005 c15 -8 27 -21 27 -28 0 -8 4 -6 10 3 13 20 12 26 -2 28
-7 0 -24 3 -38 7 -24 6 -24 6 3 -10z"/>
<path d="M9026 6013 c-50 -4 -131 -47 -170 -92 -20 -22 -17 -37 15 -82 20 -27
0 -70 -57 -122 -30 -28 -52 -52 -50 -54 7 -7 135 77 145 94 6 12 12 8 30 -21
13 -20 25 -36 28 -36 13 0 -11 56 -54 125 -51 84 -51 85 21 134 32 22 57 29
111 34 84 6 115 -8 141 -64 9 -21 26 -41 38 -44 50 -14 75 -28 69 -38 -3 -5 2
-16 13 -24 15 -11 16 -17 8 -31 -9 -14 -27 -17 -98 -17 -85 0 -86 -1 -65 -17
11 -10 30 -18 40 -18 32 0 99 -48 99 -70 0 -27 -8 -25 -49 13 -19 17 -29 24
-21 13 14 -17 12 -18 -40 -15 l-55 4 -26 -49 c-21 -39 -28 -69 -34 -144 -7
-99 -30 -183 -72 -265 -25 -50 -23 -78 3 -42 49 66 76 146 96 281 11 77 27
152 37 169 15 27 20 29 66 26 28 -1 58 -10 68 -19 16 -14 19 -14 33 0 19 19 7
51 -34 85 l-27 23 33 0 c25 0 42 8 63 31 16 17 29 37 29 44 0 16 -27 38 -78
64 -23 12 -47 32 -52 46 -13 33 -92 85 -127 83 -15 -1 -50 -3 -77 -5z"/>
<path d="M9012 5848 c2 -60 7 -93 12 -88 12 12 9 147 -4 169 -7 11 -9 -14 -8
-81z"/>
<path d="M8385 5794 c18 -14 20 -25 17 -127 -3 -98 -6 -114 -24 -129 -20 -18
-19 -18 28 -18 44 0 46 1 28 14 -17 13 -19 25 -16 113 2 54 5 99 6 100 1 2 17
-34 36 -80 18 -45 40 -98 48 -117 l14 -35 58 120 58 120 1 -100 c1 -102 -3
-118 -29 -128 -8 -3 12 -6 44 -6 50 -1 57 1 43 12 -13 9 -18 36 -23 123 -7
108 -6 111 17 133 l24 22 -35 -3 c-34 -3 -37 -7 -88 -112 -29 -60 -54 -107
-56 -105 -2 2 -25 52 -51 112 l-48 107 -36 0 c-34 -1 -35 -1 -16 -16z"/>
<path d="M10548 5790 c20 -19 22 -31 22 -125 0 -92 -3 -108 -20 -125 l-20 -20
58 1 c44 0 52 2 35 9 -20 8 -23 17 -23 65 0 48 3 55 19 55 13 0 32 -20 55 -59
37 -60 51 -72 89 -70 13 0 16 3 9 6 -8 3 -32 33 -53 66 l-39 61 25 26 c27 29
32 66 12 94 -14 20 -77 35 -146 36 l-45 0 22 -20z m126 -16 c21 -20 20 -73 -1
-96 -9 -10 -29 -18 -45 -18 -28 0 -28 0 -28 65 l0 65 29 0 c16 0 37 -7 45 -16z"/>
<path d="M9721 5681 c-12 -12 -21 -31 -22 -43 l0 -23 -11 23 c-14 27 -20 28
-43 2 -10 -11 -24 -20 -32 -20 -7 0 -37 -13 -66 -30 -29 -16 -77 -34 -107 -41
-106 -22 -176 -75 -252 -187 -28 -43 -78 -112 -110 -156 -37 -49 -56 -82 -50
-88 12 -12 47 33 144 182 98 152 142 188 273 225 33 9 77 28 98 41 44 29 92
41 101 25 4 -6 -21 -30 -56 -56 -92 -66 -140 -106 -134 -112 3 -3 24 10 47 28
37 29 52 34 121 40 60 5 96 16 154 43 73 35 124 46 124 27 0 -15 -123 -90
-180 -110 -30 -10 -89 -37 -130 -59 -41 -23 -109 -50 -150 -61 -65 -18 -81
-28 -133 -78 -41 -42 -69 -82 -98 -141 -38 -80 -47 -112 -31 -112 4 0 24 35
44 78 43 88 118 187 163 214 17 9 64 24 104 33 43 9 86 25 105 40 18 14 37 25
42 25 5 0 23 7 39 16 17 9 47 22 67 30 43 15 144 81 171 112 11 11 16 26 12
31 -8 14 -65 14 -99 1 -31 -11 -31 -14 -5 44 24 55 18 70 -24 62 -16 -3 -36
-1 -43 5 -9 8 -18 5 -33 -10z m99 -18 c0 -24 -65 -115 -91 -129 -41 -21 -47
-11 -15 26 14 17 26 35 26 40 0 15 51 70 66 70 8 0 14 -3 14 -7z"/>
<path d="M10507 5374 c-4 -5 -16 -27 -26 -50 -57 -129 -198 -288 -333 -377
-190 -124 -400 -177 -619 -155 -320 32 -596 217 -750 502 -50 93 -72 91 -25
-2 260 -516 935 -688 1417 -361 126 85 254 230 320 362 27 53 36 101 16 81z"/>
</g>
</svg>
